:SAMPLES-PER-SECOND 30
:FULLY-SPECIFIED
:DEGREES
182
root  -2.72304 40.9114 0.946413 176.947 -78.504 -177.985
RightUpLeg  2.92923 -0.373411 -1.18351
RightLeg  -0.0934527 -9.46046 -0.766003
RightFoot  -0.701858 -0.340659 3.60473
RightToes  -3.13006e-008 1.75238e-005 3.56266e-009
Spine  -5.74838 -3.60611 -7.56323
Spine1  12.8983 -6.81362 11.8595
HEad  -11.6378 15.1435 8.03875
LeftShoulder1  1.81626 -3.68186 -18.7336
LeftArm  -71.4586 -26.2162 -28.2617
LeftForeArm  -10.0443 -58.0375 -19.2185
LeftHand  0.0296208 0.385735 -0.792988
RightShoulder  3.12663 5.85989 27.4085
RightArm  -18.6683 -12.1153 29.609
RightForeArm  143.267 72.5755 145.138
RightHand  -0.280758 8.49985 -2.72759
LeftUpLeg  5.73912 1.721 1.9438
LeftLeg  -1.72516 22.9686 -1.05674
LeftFoot  -1.77249 0.283903 -3.22397
LeftToes  4.76866e-008 1.46233e-008 1.30548e-009
183
root  -2.75133 40.9096 0.998078 176.581 -77.1073 -177.503
RightUpLeg  2.83802 -0.429848 -1.22245
RightLeg  -0.449405 -8.04154 -0.54122
RightFoot  -0.489447 -0.347469 3.61752
RightToes  -3.13006e-008 1.75238e-005 3.56266e-009
Spine  -5.96785 -3.5873 -6.90441
Spine1  13.7461 -6.80531 11.3631
HEad  -12.5059 17.0226 7.08399
LeftShoulder1  1.87371 -3.72694 -19.4161
LeftArm  -63.1164 -15.5261 -26.5928
LeftForeArm  5.37593 -65.6671 -26.0734
LeftHand  0.432403 -0.746527 -8.00964
RightShoulder  2.95563 5.41896 27.1422
RightArm  -17.8254 -12.9486 30.6019
RightForeArm  143.408 73.1247 144.006
RightHand  -0.359505 8.53163 -3.37467
LeftUpLeg  5.86864 1.79576 1.95287
LeftLeg  -1.83039 24.2811 -1.13248
LeftFoot  -1.8701 0.279028 -3.11861
LeftToes  4.76866e-008 1.46233e-008 1.30548e-009
184
root  -2.78125 40.9015 1.02588 176.571 -75.9977 -177.289
RightUpLeg  2.52659 -0.190052 -1.09775
RightLeg  -0.469045 -7.20596 -0.654346
RightFoot  -0.432708 -0.346051 3.56349
RightToes  -3.13006e-008 1.75238e-005 3.56266e-009
Spine  -6.09551 -3.6528 -6.16849
Spine1  14.3288 -6.61795 10.0897
HEad  -13.2233 18.1118 7.52844
LeftShoulder1  1.9347 -3.77485 -20.1351
LeftArm  -52.9774 -4.72528 -23.9655
LeftForeArm  34.2788 -75.5759 -48.8021
LeftHand  1.08441 -2.63116 -15.4886
RightShoulder  2.95085 5.30882 27.5139
RightArm  -17.0275 -14.2457 30.948
RightForeArm  143.475 73.3408 143.54
RightHand  -0.383354 8.37405 -3.60248
LeftUpLeg  5.73004 1.90103 1.98094
LeftLeg  -1.62271 25.2796 -1.13313
LeftFoot  -2.07141 0.279759 -3.10464
LeftToes  4.76866e-008 1.46233e-008 1.30548e-009
185
root  -2.81171 40.8955 1.05596 176.597 -75.4117 -177.237
RightUpLeg  2.28684 -0.0814505 -1.07466
RightLeg  -0.217106 -6.70284 -0.769245
RightFoot  -0.495918 -0.352561 3.65681
RightToes  -3.13006e-008 1.75238e-005 3.56266e-009
Spine  -6.08894 -3.70923 -5.78971
Spine1  14.6589 -6.47511 9.19712
HEad  -13.7255 18.7073 8.71093
LeftShoulder1  1.91065 -3.64046 -20.3161
LeftArm  -42.9666 3.23378 -21.9279
LeftForeArm  86.7798 -78.7347 -105.383
LeftHand  1.62095 -4.26794 -18.9468
RightShoulder  2.92677 5.27359 27.3613
RightArm  -16.5449 -16.212 31.2953
RightForeArm  144.071 73.3049 143.723
RightHand  -0.274453 8.38667 -2.68918
LeftUpLeg  5.77583 1.8277 1.88196
LeftLeg  -1.66343 25.9453 -1.08414
LeftFoot  -2.13709 0.288262 -3.21558
LeftToes  4.76866e-008 1.46233e-008 1.30548e-009
186
root  -2.82049 40.8921 1.06834 176.479 -75.424 -177.07
RightUpLeg  2.18784 -0.0178556 -1.03418
RightLeg  -0.0910207 -6.76998 -0.811869
RightFoot  -0.56678 -0.356699 3.72861
RightToes  -3.13006e-008 1.75238e-005 3.56266e-009
Spine  -6.34101 -3.59925 -5.38524
Spine1  15.3243 -6.17526 8.32856
HEad  -14.5506 18.4347 9.58023
LeftShoulder1  2.01529 -3.80831 -21.1545
LeftArm  -38.3003 5.06012 -21.3962
LeftForeArm  115.816 -73.6722 -138.294
LeftHand  2.49463 -7.39386 -21.9724
RightShoulder  2.57758 4.46165 26.3434
RightArm  -16.0755 -18.6265 32.8224
RightForeArm  144.935 72.9128 144.706
RightHand  -0.360429 8.30273 -3.42748
LeftUpLeg  5.70283 1.83305 1.89472
LeftLeg  -1.5808 25.9416 -1.03257
LeftFoot  -2.22223 0.291711 -3.25168
LeftToes  4.76866e-008 1.46233e-008 1.30548e-009
187
root  -2.81638 40.8937 1.0695 176.845 -76.1748 -177.471
RightUpLeg  2.31293 -0.180857 -1.19211
RightLeg  -0.110796 -7.3332 -0.79173
RightFoot  -0.631219 -0.354221 3.70405
RightToes  -3.13006e-008 1.75238e-005 3.56266e-009
Spine  -6.50951 -3.63991 -5.31188
Spine1  15.868 -6.03431 7.65493
HEad  -15.4085 17.1164 10.0806
LeftShoulder1  2.4179 -4.81357 -22.7967
LeftArm  -39.8055 2.49648 -21.7559
LeftForeArm  119.951 -68.8803 -148.655
LeftHand  3.14703 -9.60523 -23.5621
RightShoulder  2.32855 3.89389 25.4428
RightArm  -15.6823 -21.713 34.1526
RightForeArm  146.679 72.2387 146.361
RightHand  -0.317073 8.40389 -3.04272
LeftUpLeg  5.69049 1.71512 1.76962
LeftLeg  -1.72041 25.3377 -1.07846
LeftFoot  -2.13448 0.286337 -3.15407
LeftToes  4.76866e-008 1.46233e-008 1.30548e-009
188
root  -2.79806 40.904 1.04833 176.96 -77.5277 -177.671
RightUpLeg  2.62968 -0.272514 -1.24897
RightLeg  -0.254673 -8.53258 -0.803799
RightFoot  -0.648325 -0.362383 3.84196
RightToes  -3.13006e-008 1.75238e-005 3.56266e-009
Spine  -6.24575 -4.09855 -5.54579
Spine1  15.7829 -6.29955 7.07809
HEad  -15.1175 16.789 11.2203
LeftShoulder1  2.66168 -5.27843 -24.099
LeftArm  -44.8766 -3.28894 -23.2253
LeftForeArm  113.569 -66.4839 -151.42
LeftHand  3.20949 -10.6059 -22.4858
RightShoulder  2.38383 4.06032 25.4726
RightArm  -15.4672 -24.1287 34.7275
RightForeArm  146.515 72.2222 146.363
RightHand  -0.194784 8.6193 -1.99158
LeftUpLeg  5.66374 1.64655 1.77156
LeftLeg  -1.88627 24.0568 -1.1306
LeftFoot  -1.93535 0.276959 -2.99764
LeftToes  4.76866e-008 1.46233e-008 1.30548e-009
189
root  -2.76722 40.9091 1.02151 177.162 -78.7208 -178.039
RightUpLeg  2.90267 -0.502527 -1.37749
RightLeg  -0.223198 -9.47299 -0.710952
RightFoot  -0.74705 -0.359996 3.81979
RightToes  -3.13006e-008 1.75238e-005 3.56266e-009
Spine  -6.63278 -4.37464 -5.4053
Spine1  16.4522 -6.26104 5.95661
HEad  -14.9916 15.4458 12.8608
LeftShoulder1  2.78125 -5.45131 -24.8908
LeftArm  -50.2883 -12.0496 -25.9809
LeftForeArm  99.3629 -67.7076 -148.322
LeftHand  2.71046 -10.4879 -19.1857
RightShoulder  2.39387 4.03898 25.7057
RightArm  -14.443 -26.2494 35.0427
RightForeArm  147.224 72.3478 146.231
RightHand  -0.386538 8.50048 -3.60747
LeftUpLeg  5.73343 1.56236 1.73979
LeftLeg  -2.05869 22.948 -1.14432
LeftFoot  -1.74173 0.275968 -2.97499
LeftToes  4.76866e-008 1.46233e-008 1.30548e-009
